# AST/ASF file generated using VICON BodyLanguage
# -----------------------------------------------
:version 1.10
:name VICON
:units
  mass 1.0
  length 0.45
  angle deg
:documentation
   .ast/.asf automatically generated from VICON data using
   VICON BodyBuilder and BodyLanguage model FoxedUp or BRILLIANT.MOD
:root
   order TX TY TZ RX RY RZ
   axis XYZ
   position 0 0 0  
   orientation 0 0 0 
:bonedata
  begin
     id 1 
     name lhipjoint
     direction 0.621563 -0.714088 0.322083 
     length 2.21591 
     axis 0 0 0  XYZ
  end
  begin
     id 2 
     name lfemur
     direction 0.34202 -0.939693 0  
     length 6.84027  
     axis 0 0 20  XYZ
    dof rx ry rz
    limits (-160.0 20.0)
           (-70.0 70.0)
           (-60.0 70.0)
  end
  begin
     id 3 
     name ltibia
     direction 0.34202 -0.939693 0   
     length 6.74005   
     axis 0 0 20   XYZ
    dof rx
    limits (-10.0 170.0)
  end
  begin
     id 4 
     name lfoot
     direction 0.0348332 -0.0960526 0.994767   
     length 1.54672   
     axis -90 7.62852e-016 20   XYZ
    dof rx rz
    limits (-45.0 90.0)
           (-70.0 20.0)
  end
  begin
     id 5 
     name ltoes
     direction 1.53538e-011 -4.22089e-011 1   
     length 0.792077   
     axis -90 7.62852e-016 20   XYZ
    dof rx
    limits (-90.0 20.0)
  end
  begin
     id 6 
     name rhipjoint
     direction -0.648389 -0.693984 0.313015   
     length 2.2801  
     axis 0 0 0  XYZ 
  end
  begin
     id 7 
     name rfemur
     direction -0.34202 -0.939693 0   
     length 6.62341   
     axis 0 0 -20   XYZ
    dof rx ry rz
    limits (-160.0 20.0)
           (-70.0 70.0)
           (-70.0 60.0)
  end
  begin
     id 8 
     name rtibia
     direction -0.34202 -0.939693 0   
     length 6.63811   
     axis 0 0 -20   XYZ
    dof rx
    limits (-10.0 170.0)
 end
 begin
     id 9 
     name rfoot
     direction -0.0578404 -0.158915 0.985596   
     length 1.64992  
     axis -90 -7.62852e-016 -20   XYZ
    dof rx rz
    limits (-45.0 90.0)
           (-20.0 70.0)
  end
  begin
     id 10 
     name rtoes
     direction -1.53571e-011 -4.21911e-011 1   
     length 0.839909   
     axis -90 -7.62852e-016 -20   XYZ
    dof rx
    limits (-90.0 20.0)
  end
  begin
     id 11 
     name lowerback
     direction 0.000554472 0.999997 -0.00226605   
     length 1.81878   
     axis 0 0 0   XYZ
    dof rx ry rz
    limits (-20.0 45.0)
           (-30.0 30.0)
           (-30.0 30.0)
  end
  begin
     id 12 
     name upperback
     direction 0.00177008 0.999761 -0.021771   
     length 1.81977   
     axis 0 0 0   XYZ
    dof rx ry rz
    limits (-20.0 45.0)
           (-30.0 30.0)
           (-30.0 30.0)
  end
  begin
     id 13 
     name thorax
     direction 0.00134147 0.999799 -0.0200243   
     length 1.81422   
     axis 0 0 0   XYZ
    dof rx ry rz
    limits (-20.0 45.0)
           (-30.0 30.0)
           (-30.0 30.0)
  end
  begin
     id 14 
     name lowerneck
     direction -0.0819714 0.987506 0.134583   
     length 1.68295   
     axis 0 0 0   XYZ
    dof rx ry rz
    limits (-20.0 45.0)
           (-30.0 30.0)
           (-30.0 30.0)
  end
  begin
     id 15 
     name upperneck
     direction 0.0867129 0.969666 -0.228538   
     length 1.71188   
     axis 0 0 0   XYZ
    dof rx ry rz
    limits (-20.0 45.0)
           (-30.0 30.0)
           (-30.0 30.0)
  end
  begin
     id 16
     name head
     direction 0.023699 0.995021 -0.0968101  
     length 1.73365  
     axis 0 0 0   XYZ
    dof rx ry rz
    limits (-20.0 45.0)
           (-30.0 30.0)
           (-30.0 30.0)
  end
  begin
     id 17 
     name lclavicle
     direction 0.912847 0.398248 0.090054  
     length 3.56518  
     axis 0 0 0   XYZ
    dof ry rz
    limits (-20.0 10.0)
           (0.0 20.0)
  end
  begin
     id 18 
     name lhumerus
     direction 1 -4.48961e-011 -4.05442e-028   
     length 4.05444   
     axis 180 -30 -90   XYZ
    dof rx ry rz
    limits (-60.0 90.0)
           (-90.0 90.0)
           (-90.0 90.0)
  end
  begin
     id 19
     name lradius
     direction 1 -4.4897e-011 1.54979e-027   
     length 3.21205   
     axis 180 -30 -90   XYZ
    dof rx
    limits (-10.0 170.0)
  end
  begin
     id 20
     name lwrist
     direction 1 -4.48979e-011 1.55564e-027   
     length 1.60602   
     axis -1.61768e-015 90 90   XYZ
    dof ry
    limits (-180.0 0.0)
 end
  begin
     id 21 
     name lhand
     direction 1 -4.48877e-011 3.11128e-027   
     length 0.707407   
     axis -1.98526e-015 90 90   XYZ
    dof rx rz
    limits (-90.0 90.0)
           (-45.0 45.0)
  end
  begin
     id 22 
     name lfingers
     direction 1 -4.49016e-011 6.22255e-027   
     length 0.57033   
     axis -3.97052e-015 90 90   XYZ
    dof rx
    limits (0.0 90.0)
  end
  begin
     id 23
     name lthumb
     direction 0.707107 -6.35011e-011 0.707107   
     length 0.818883   
     axis -90 45 2.85299e-015   XYZ
    dof rx rz
    limits (-45.0 45.0)
           (-45.0 45.0)
  end
  begin
     id 24 
     name rclavicle
     direction -0.930415 0.353791 0.0957082   
     length 3.54688  
     axis 0 0 0   XYZ 
    dof ry rz
    limits (-10.0 20.0)
           (-20.0 0.0)
  end
  begin
     id 25 
     name rhumerus
     direction -1 -4.48952e-011 -8.4136e-018  
     length 3.74048   
     axis 180 30 90   XYZ
    dof rx ry rz
    limits (-90.0 60.0)
           (-90.0 90.0)
           (-90.0 90.0)
  end
  begin
     id 26 
     name rradius
     direction -1 -4.48964e-011 1.66692e-027   
     length 3.1603   
     axis 180 30 90   XYZ
    dof rx
    limits (-10.0 170.0)
  end
  begin
     id 27 
     name rwrist
     direction -1 -4.49008e-011 1.55564e-027   
     length 1.58015   
     axis -1.61768e-015 -90 -90   XYZ
    dof ry
    limits (-180.0 0.0)
  end
  begin
     id 28
     name rhand
     direction -1 -4.48922e-011 3.11128e-027   
     length 0.717028   
     axis -1.98526e-015 -90 -90   XYZ
    dof rx rz
    limits (-90.0 90.0)
           (-45.0 45.0)
  end
  begin
     id 29
     name rfingers
     direction -1 -4.49002e-011 6.22255e-027   
     length 0.578086   
     axis -3.97052e-015 -90 -90   XYZ
    dof rx
    limits (0.0 90.0)
  end
  begin
     id 30
     name rthumb
     direction -0.707107 -6.34899e-011 0.707107   
     length 0.83002   
     axis -90 -45 -2.85299e-015   XYZ
    dof rx rz
    limits (-45.0 45.0)
           (-45.0 45.0)
  end
:hierarchy
  begin
    root lhipjoint rhipjoint lowerback
    lhipjoint lfemur
    lfemur ltibia
    ltibia lfoot
    lfoot ltoes
    rhipjoint rfemur
    rfemur rtibia
    rtibia rfoot
    rfoot rtoes
    lowerback upperback
    upperback thorax
    thorax lowerneck lclavicle rclavicle
    lowerneck upperneck
    upperneck head
    lclavicle lhumerus
    lhumerus lradius
    lradius lwrist
    lwrist lhand lthumb
    lhand lfingers
    rclavicle rhumerus
    rhumerus rradius
    rradius rwrist
    rwrist rhand rthumb
    rhand rfingers
  end

#!OML:ASF G:\acrobat\cartwheel_test\acrobat_wednesday\Session 1\acrobatwednesday.ASF
:FULLY-SPECIFIED
:DEGREES
66
root 18.7723 16.4537 0.277548 81.383 86.492 73.3198
lowerback -7.61746 -0.728264 -2.06202
upperback -0.00292922 -0.757102 -0.409256
thorax 4.29244 -0.409079 0.650353
lowerneck -13.5155 -16.1156 -15.5642
upperneck 18.8896 -21.5618 11.64
head 11.3425 -9.87562 3.13266
rclavicle 5.49143e-015 -5.1684e-015
rhumerus -34.2447 -22.6609 -73.2141
rradius 22.9986
rwrist 37.8735
rhand -20.1442 7.74182
rfingers 7.12502
rthumb 6.20057 -22.1474
lclavicle 5.49143e-015 -5.1684e-015
lhumerus -27.2176 7.11833 80.3329
lradius 18.0572
lwrist 11.8615
lhand -21.5772 -13.4405
lfingers 7.12502
lthumb 4.81698 16.4847
rfemur 3.12796 17.514 20.6923
rtibia -2.15909
rfoot -31.5972 18.6618
rtoes 7.08038
lfemur -1.64523 -4.68261 -25.0894
ltibia 3.51723
lfoot 15.601 -8.30746
ltoes -36.2832
67
root 18.7759 16.4531 0.279207 82.0138 86.4998 73.8938
lowerback -7.7045 -0.717051 -2.05044
upperback 0.00856809 -0.741064 -0.401007
thorax 4.35286 -0.401502 0.653145
lowerneck -13.6654 -16.1296 -15.5611
upperneck 18.957 -21.5503 11.5633
head 11.3826 -9.86908 3.09656
rclavicle -6.18717e-015 -9.93923e-015
rhumerus -34.176 -22.476 -73.2947
rradius 23.0877
rwrist 37.5628
rhand -20.5225 8.24428
rfingers 7.12502
rthumb 5.83538 -21.6554
lclavicle -6.18717e-015 -9.93923e-015
lhumerus -27.1155 7.30166 80.3138
lradius 17.9334
lwrist 11.6793
lhand -21.5716 -13.6068
lfingers 7.12502
lthumb 4.82245 16.3183
rfemur 3.12532 17.5104 20.6835
rtibia -2.25898
rfoot -31.6938 18.5833
rtoes 6.87901
lfemur -1.6822 -4.71893 -25.0885
ltibia 3.49956
lfoot 15.6099 -8.29478
ltoes -36.2587
68
root 18.7803 16.4532 0.281854 83.1558 86.5057 75.0484
lowerback -7.71433 -0.704071 -2.04809
upperback 0.000831988 -0.722823 -0.418591
thorax 4.34958 -0.392052 0.63564
lowerneck -13.6626 -16.149 -15.5947
upperneck 19.0289 -21.5796 11.5645
head 11.4177 -9.8819 3.09412
rclavicle -1.61513e-015 2.38542e-015
rhumerus -34.2042 -22.318 -73.3352
rradius 23.1037
rwrist 37.4352
rhand -20.9217 8.5367
rfingers 7.12502
rthumb 5.44999 -21.3732
lclavicle -1.61513e-015 2.38542e-015
lhumerus -27.0879 7.47963 80.2313
lradius 17.8213
lwrist 11.4372
lhand -21.3923 -13.8687
lfingers 7.12502
lthumb 4.9956 16.0524
rfemur 3.18826 17.4352 20.697
rtibia -2.31016
rfoot -31.6251 18.7288
rtoes 6.40015
lfemur -1.64458 -4.77916 -25.0986
ltibia 3.48335
lfoot 15.6086 -8.27616
ltoes -36.3578
69
root 18.785 16.4533 0.2852 84.5275 86.5332 76.4594
lowerback -7.67441 -0.70584 -2.03809
upperback -0.0224099 -0.726887 -0.426799
thorax 4.30282 -0.393162 0.621684
lowerneck -13.5726 -16.1523 -15.6471
upperneck 19.0339 -21.5934 11.5957
head 11.4157 -9.89231 3.1149
rclavicle -3.37934e-015 5.36719e-015
rhumerus -34.2381 -22.2079 -73.3365
rradius 23.1034
rwrist 37.5259
rhand -20.8243 8.14392
rfingers 7.12502
rthumb 5.544 -21.7636
lclavicle -3.37934e-015 5.36719e-015
lhumerus -27.1076 7.77079 80.1133
lradius 17.7225
lwrist 11.0985
lhand -21.2957 -14.0528
lfingers 7.12502
lthumb 5.08881 15.8661
rfemur 3.2559 17.2705 20.738
rtibia -2.27792
rfoot -31.4473 18.861
rtoes 6.17666
lfemur -1.5972 -4.83326 -25.0803
ltibia 3.49412
lfoot 15.5851 -8.20229
ltoes -36.4057
70
root 18.7897 16.4529 0.286939 86.1143 86.5172 78.0513
lowerback -7.66462 -0.721329 -2.05647
upperback -0.0419225 -0.745304 -0.444176
thorax 4.27753 -0.402013 0.61219
lowerneck -13.6268 -16.1636 -15.6438
upperneck 19.0771 -21.5977 11.5548
head 11.4365 -9.89438 3.09492
rclavicle -5.96354e-015 -8.15017e-015
rhumerus -34.2204 -22.1716 -73.3247
rradius 23.0799
rwrist 37.6439
rhand -20.3546 7.53565
rfingers 7.12502
rthumb 5.9975 -22.3595
lclavicle -5.96354e-015 -8.15017e-015
lhumerus -27.1043 7.96167 80.0414
lradius 17.6564
lwrist 10.8759
lhand -21.2877 -14.1643
lfingers 7.12502
lthumb 5.09655 15.7544
rfemur 3.36825 17.229 20.7238
rtibia -2.40641
rfoot -31.5167 18.7873
rtoes 6.5381
lfemur -1.58577 -4.92325 -25.1338
ltibia 3.51381
lfoot 15.607 -8.14292
ltoes -36.3572
71
root 18.794 16.4532 0.28808 87.2571 86.4804 79.1903
lowerback -7.64425 -0.71722 -2.07726
upperback -0.0751364 -0.737094 -0.475128
thorax 4.2312 -0.39723 0.593241
lowerneck -13.6919 -16.1877 -15.616
upperneck 19.1577 -21.6237 11.4939
head 11.4707 -9.90477 3.05902
rclavicle 3.97569e-016 5.1684e-015
rhumerus -34.241 -22.169 -73.2961
rradius 23.0537
rwrist 37.6625
rhand -20.0601 7.35664
rfingers 7.12502
rthumb 6.28176 -22.5302
lclavicle 3.97569e-016 5.1684e-015
lhumerus -27.1309 7.89981 80.0322
lradius 17.6482
lwrist 10.8602
lhand -21.3061 -14.2919
lfingers 7.12502
lthumb 5.07881 15.6272
rfemur 3.46607 17.2586 20.6764
rtibia -2.58995
rfoot -31.7898 18.4866
rtoes 7.08683
lfemur -1.57798 -4.97597 -25.2061
ltibia 3.53899
lfoot 15.641 -8.10274
ltoes -36.3582
72
root 18.798 16.4539 0.290454 87.9322 86.4989 79.8679
lowerback -7.60142 -0.69365 -2.05974
upperback -0.12643 -0.708609 -0.476953
thorax 4.1528 -0.381583 0.585604
lowerneck -13.6121 -16.2172 -15.6248
upperneck 19.1736 -21.6605 11.4325
head 11.4598 -9.93167 3.03647
rclavicle 7.74018e-015 -7.7526e-015
rhumerus -34.3408 -22.2331 -73.2013
rradius 23.0674
rwrist 37.6878
rhand -19.9549 7.44843
rfingers 7.12502
rthumb 6.38333 -22.4354
lclavicle 7.74018e-015 -7.7526e-015
lhumerus -27.2108 7.64777 80.1056
lradius 17.7405
lwrist 11.0313
lhand -21.4282 -14.0799
lfingers 7.12502
lthumb 4.96086 15.8421
rfemur 3.51379 17.3035 20.704
rtibia -2.6758
rfoot -32.0079 18.2851
rtoes 7.43461
lfemur -1.58646 -4.98643 -25.1829
ltibia 3.59833
lfoot 15.6392 -8.06922
ltoes -36.4712
73
root 18.8016 16.4537 0.294616 88.523 86.5974 80.445
lowerback -7.57374 -0.673407 -2.00329
upperback -0.185661 -0.689668 -0.434949
thorax 4.07502 -0.370371 0.600253
lowerneck -13.5323 -16.2425 -15.6354
upperneck 19.1849 -21.6777 11.3234
head 11.4379 -9.95539 3.00209
rclavicle -5.479e-015 -4.37326e-015
rhumerus -34.4186 -22.3484 -73.0718
rradius 23.0129
rwrist 37.7739
rhand -20.0071 7.55859
rfingers 7.12502
rthumb 6.33293 -22.3267
lclavicle -5.479e-015 -4.37326e-015
lhumerus -27.2855 7.42243 80.2189
lradius 17.8652
lwrist 11.2688
lhand -21.6286 -13.6297
lfingers 7.12502
lthumb 4.76739 16.2967
rfemur 3.57158 17.5488 20.8827
rtibia -2.74676
rfoot -32.2822 18.3984
rtoes 7.51213
lfemur -1.62767 -5.00258 -25.0374
ltibia 3.65899
lfoot 15.6379 -8.04585
ltoes -36.5714
74
root 18.8057 16.4533 0.299169 89.723 86.64 81.6286
lowerback -7.56685 -0.681788 -2.0249
upperback -0.232339 -0.700784 -0.401582
thorax 4.02364 -0.37572 0.646139
lowerneck -13.5468 -16.247 -15.6114
upperneck 19.2133 -21.6605 11.2081
head 11.4297 -9.95704 2.96178
rclavicle 3.72721e-017 1.19271e-014
rhumerus -34.3647 -22.3816 -73.0007
rradius 22.8538
rwrist 37.8343
rhand -20.0479 7.62535
rfingers 7.12502
rthumb 6.29358 -22.2612
lclavicle 3.72721e-017 1.19271e-014
lhumerus -27.3382 7.26505 80.3093
lradius 17.9494
lwrist 11.5226
lhand -21.7244 -13.4389
lfingers 7.12502
lthumb 4.67485 16.4895
rfemur 3.65718 17.8022 21.0119
rtibia -2.83279
rfoot -32.5748 18.6093
rtoes 7.56303
lfemur -1.65172 -4.99478 -24.9572
ltibia 3.67072
lfoot 15.5889 -7.99665
ltoes -36.7259
